<?xml version="1.0" encoding="utf-8"?>
<!-- Generator: Adobe Illustrator 16.0.0, SVG Export Plug-In . SVG Version: 6.00 Build 0)  -->
<!DOCTYPE svg PUBLIC "-//W3C//DTD SVG 1.1//EN" "http://www.w3.org/Graphics/SVG/1.1/DTD/svg11.dtd">
<svg version="1.1" id="Layer_1" xmlns="http://www.w3.org/2000/svg" xmlns:xlink="http://www.w3.org/1999/xlink" x="0px" y="0px"
	 width="56.693px" height="35.229px" viewBox="0.864 0 56.693 35.229" enable-background="new 0.864 0 56.693 35.229"
	 xml:space="preserve">
<g>
	<g>
		<path fill="#E5E6E7" d="M54.222,0.553c1.534,0,2.782,1.248,2.782,2.782v28.558c0,1.534-1.248,2.782-2.782,2.782H4.2
			c-1.534,0-2.782-1.248-2.782-2.782V3.336c0-1.534,1.248-2.782,2.782-2.782H54.222 M54.222,0H4.2C2.358,0,0.864,1.493,0.864,3.336
			v28.558c0,1.843,1.494,3.336,3.336,3.336h50.021c1.843,0,3.336-1.493,3.336-3.336V3.336C57.558,1.493,56.064,0,54.222,0L54.222,0z
			"/>
	</g>
</g>
<g>
	<g>
		<g>
			<g>
				<path fill="#ED1C2E" d="M20.606,5.316c7.08,0,12.818,5.738,12.818,12.818c0,7.079-5.739,12.818-12.818,12.818
					c-7.079,0-12.818-5.74-12.818-12.818C7.789,11.054,13.528,5.316,20.606,5.316z"/>
				<g>
					<path fill="#FCB131" d="M37.815,5.315c-3.314,0-6.331,1.257-8.605,3.318c-0.462,0.42-0.895,0.874-1.293,1.357h2.589
						c0.354,0.43,0.68,0.883,0.978,1.357h-4.544c-0.272,0.436-0.52,0.889-0.738,1.358h6.021c0.206,0.44,0.387,0.892,0.543,1.356
						h-7.106c-0.149,0.443-0.273,0.896-0.373,1.358h7.851c0.189,0.875,0.289,1.783,0.289,2.715c0,1.423-0.232,2.792-0.66,4.071
						h-7.106c0.156,0.465,0.337,0.918,0.542,1.358h6.021c-0.219,0.468-0.466,0.921-0.739,1.357h-4.543
						c0.296,0.473,0.623,0.926,0.978,1.356h2.589c-0.398,0.483-0.831,0.938-1.295,1.357c2.275,2.061,5.292,3.317,8.605,3.317
						c7.079,0,12.818-5.739,12.818-12.818C50.633,11.056,44.894,5.315,37.815,5.315z"/>
				</g>
			</g>
			<path fill="#FCB131" d="M48.925,25.279c0-0.229,0.187-0.413,0.414-0.413c0.229,0,0.414,0.185,0.414,0.413
				c0,0.229-0.186,0.414-0.414,0.414C49.111,25.693,48.925,25.508,48.925,25.279z M49.339,25.594c0.173,0,0.314-0.141,0.314-0.315
				c0-0.175-0.141-0.314-0.314-0.314c-0.174,0-0.315,0.14-0.315,0.314C49.024,25.452,49.165,25.594,49.339,25.594z M49.283,25.461
				h-0.085v-0.363h0.154c0.033,0,0.065,0,0.094,0.017c0.029,0.021,0.045,0.056,0.045,0.091c0,0.042-0.023,0.079-0.063,0.095
				l0.067,0.16h-0.094l-0.056-0.144h-0.062L49.283,25.461L49.283,25.461z M49.283,25.254h0.047c0.018,0,0.036,0.001,0.052-0.007
				c0.014-0.009,0.022-0.026,0.022-0.042c0-0.013-0.01-0.03-0.021-0.037c-0.015-0.009-0.039-0.007-0.056-0.007h-0.045V25.254
				L49.283,25.254z"/>
		</g>
		<g>
			<g>
				<path fill="#003473" d="M17.613,19.537c-0.146-0.017-0.21-0.022-0.31-0.022c-0.79,0-1.188,0.271-1.188,0.805
					c0,0.329,0.195,0.538,0.499,0.538C17.181,20.859,17.589,20.32,17.613,19.537z M18.625,21.893c-0.185,0-1.152,0-1.152,0
					l0.026-0.546c-0.352,0.434-0.821,0.639-1.458,0.639c-0.754,0-1.271-0.59-1.271-1.444c0-1.288,0.899-2.04,2.443-2.04
					c0.158,0,0.36,0.015,0.568,0.041c0.043-0.174,0.054-0.249,0.054-0.343c0-0.35-0.243-0.481-0.892-0.481
					c-0.682-0.007-1.242,0.163-1.474,0.238c0.015-0.088,0.193-1.189,0.193-1.189c0.693-0.204,1.15-0.28,1.665-0.28
					c1.195,0,1.828,0.536,1.827,1.55c0.003,0.272-0.042,0.607-0.112,1.049C18.92,19.851,18.66,21.493,18.625,21.893z"/>
				<polygon fill="#003473" points="14.187,21.893 12.795,21.893 13.592,16.896 11.813,21.893 10.864,21.893 10.747,16.923 
					9.909,21.893 8.606,21.893 9.694,15.391 11.695,15.391 11.817,19.031 13.038,15.391 15.263,15.391 				"/>
				<path fill="#003473" d="M39.534,19.537c-0.146-0.017-0.21-0.022-0.31-0.022c-0.789,0-1.188,0.271-1.188,0.805
					c0,0.329,0.193,0.538,0.499,0.538C39.103,20.859,39.511,20.32,39.534,19.537z M40.547,21.893c-0.186,0-1.152,0-1.152,0
					l0.025-0.546c-0.351,0.434-0.82,0.639-1.458,0.639c-0.755,0-1.271-0.59-1.271-1.444c0-1.288,0.9-2.04,2.443-2.04
					c0.159,0,0.359,0.015,0.567,0.041c0.043-0.174,0.054-0.249,0.054-0.343c0-0.35-0.241-0.481-0.891-0.481
					c-0.681-0.007-1.243,0.163-1.474,0.238c0.014-0.088,0.193-1.189,0.193-1.189c0.694-0.204,1.15-0.28,1.664-0.28
					c1.195,0,1.829,0.536,1.828,1.55c0.002,0.272-0.042,0.607-0.113,1.049C40.842,19.851,40.582,21.493,40.547,21.893z"/>
				<path fill="#003473" d="M24.81,21.813c-0.381,0.12-0.678,0.171-1,0.171c-0.711,0-1.1-0.409-1.1-1.161
					c-0.01-0.235,0.103-0.848,0.191-1.411c0.081-0.494,0.604-3.607,0.604-3.607h1.383l-0.161,0.8h0.835l-0.188,1.271h-0.838
					c-0.161,1.004-0.39,2.258-0.392,2.424c0,0.273,0.145,0.391,0.477,0.391c0.159,0,0.282-0.016,0.375-0.05L24.81,21.813z"/>
				<path fill="#003473" d="M29.051,21.77c-0.476,0.145-0.934,0.216-1.419,0.213c-1.549,0-2.355-0.811-2.355-2.358
					c0-1.808,1.026-3.138,2.421-3.138c1.14,0,1.869,0.745,1.869,1.913c0,0.389-0.05,0.767-0.17,1.3H26.64
					c-0.094,0.768,0.397,1.087,1.203,1.087c0.495,0,0.942-0.102,1.438-0.332L29.051,21.77z M28.273,18.635
					c0.008-0.111,0.146-0.944-0.644-0.944c-0.44,0-0.756,0.335-0.883,0.944H28.273z"/>
				<path fill="#003473" d="M19.46,18.277c0,0.669,0.324,1.13,1.06,1.477c0.564,0.264,0.651,0.343,0.651,0.583
					c0,0.33-0.248,0.479-0.799,0.479c-0.416,0-0.802-0.064-1.248-0.209c0,0-0.182,1.166-0.191,1.221
					c0.316,0.069,0.599,0.133,1.449,0.157c1.468,0,2.146-0.56,2.146-1.768c0-0.726-0.283-1.152-0.981-1.474
					c-0.584-0.266-0.651-0.327-0.651-0.574c0-0.285,0.232-0.432,0.681-0.432c0.273,0,0.646,0.029,1,0.079l0.198-1.227
					c-0.36-0.058-0.907-0.103-1.225-0.103C19.994,16.488,19.455,17.301,19.46,18.277z"/>
				<path fill="#003473" d="M35.818,16.627c0.387,0,0.748,0.101,1.244,0.351l0.228-1.411c-0.205-0.08-0.921-0.55-1.529-0.55
					c-0.93,0-1.719,0.462-2.273,1.225c-0.807-0.268-1.14,0.273-1.547,0.812l-0.362,0.084c0.028-0.177,0.053-0.354,0.044-0.532
					h-1.278c-0.174,1.637-0.483,3.294-0.726,4.932l-0.063,0.355h1.394c0.233-1.509,0.359-2.476,0.436-3.132l0.524-0.291
					c0.078-0.292,0.324-0.39,0.814-0.377c-0.064,0.345-0.099,0.708-0.099,1.083c0,1.729,0.935,2.807,2.432,2.807
					c0.387,0,0.717-0.052,1.23-0.189l0.244-1.483c-0.461,0.228-0.839,0.334-1.182,0.334c-0.809,0-1.298-0.596-1.298-1.584
					C34.052,17.63,34.779,16.627,35.818,16.627z"/>
				<path fill="#003473" d="M47.6,15.391l-0.309,1.878c-0.38-0.5-0.789-0.863-1.327-0.863c-0.703,0-1.342,0.533-1.76,1.316
					c-0.583-0.121-1.185-0.326-1.185-0.326l-0.001,0.005c0.047-0.438,0.067-0.705,0.061-0.796H41.8
					c-0.173,1.637-0.483,3.294-0.726,4.932l-0.063,0.355h1.393c0.189-1.219,0.332-2.234,0.437-3.038
					c0.476-0.43,0.714-0.804,1.193-0.78c-0.211,0.515-0.337,1.107-0.337,1.715c0,1.322,0.668,2.195,1.681,2.195
					c0.51,0,0.902-0.177,1.284-0.584l-0.066,0.492h1.317l1.06-6.501H47.6L47.6,15.391z M45.859,20.672
					c-0.474,0-0.713-0.351-0.713-1.042c0-1.039,0.449-1.776,1.08-1.776c0.479,0,0.738,0.364,0.738,1.036
					C46.962,19.937,46.507,20.672,45.859,20.672z"/>
			</g>
			<g>
				<polygon fill="#FFFFFF" points="14.586,21.508 13.195,21.508 13.993,16.51 12.213,21.508 11.265,21.508 11.147,16.539 
					10.31,21.508 9.007,21.508 10.095,15.006 12.096,15.006 12.151,19.031 13.502,15.006 15.664,15.006 				"/>
				<path fill="#FFFFFF" d="M18.014,19.151c-0.146-0.016-0.21-0.021-0.31-0.021c-0.789,0-1.188,0.271-1.188,0.805
					c0,0.328,0.195,0.539,0.499,0.539C17.582,20.474,17.99,19.934,18.014,19.151z M19.026,21.508c-0.186,0-1.153,0-1.153,0
					l0.026-0.547c-0.351,0.433-0.821,0.639-1.458,0.639c-0.754,0-1.271-0.588-1.271-1.444c0-1.287,0.899-2.038,2.443-2.038
					c0.157,0,0.36,0.015,0.567,0.042c0.043-0.175,0.054-0.249,0.054-0.345c0-0.349-0.242-0.479-0.892-0.479
					c-0.682-0.008-1.242,0.162-1.474,0.237c0.016-0.087,0.194-1.188,0.194-1.188c0.693-0.203,1.15-0.28,1.665-0.28
					c1.195,0,1.828,0.537,1.827,1.55c0.002,0.271-0.042,0.607-0.113,1.048C19.321,19.465,19.062,21.109,19.026,21.508z"/>
				<path fill="#FFFFFF" d="M37.69,15.181l-0.228,1.411c-0.498-0.25-0.857-0.351-1.243-0.351c-1.039,0-1.768,1.004-1.768,2.436
					c0,0.986,0.49,1.583,1.299,1.583c0.343,0,0.722-0.105,1.182-0.333l-0.245,1.483c-0.513,0.139-0.844,0.189-1.229,0.189
					c-1.499,0-2.432-1.077-2.432-2.807c0-2.323,1.291-3.949,3.134-3.949C36.769,14.844,37.486,15.101,37.69,15.181z"/>
				<path fill="#FFFFFF" d="M39.935,19.151c-0.146-0.016-0.21-0.021-0.31-0.021c-0.789,0-1.188,0.271-1.188,0.805
					c0,0.328,0.195,0.539,0.5,0.539C39.502,20.474,39.911,19.934,39.935,19.151z M40.947,21.508c-0.185,0-1.151,0-1.151,0
					l0.026-0.547c-0.351,0.433-0.821,0.639-1.459,0.639c-0.755,0-1.271-0.588-1.271-1.444c0-1.287,0.899-2.038,2.443-2.038
					c0.158,0,0.36,0.015,0.567,0.042c0.043-0.175,0.055-0.249,0.055-0.345c0-0.349-0.242-0.479-0.892-0.479
					c-0.681-0.008-1.241,0.162-1.473,0.237c0.015-0.087,0.192-1.188,0.192-1.188c0.693-0.203,1.15-0.28,1.666-0.28
					c1.194,0,1.828,0.537,1.825,1.55c0.004,0.271-0.042,0.607-0.112,1.048C41.243,19.465,40.983,21.109,40.947,21.508z"/>
				<path fill="#FFFFFF" d="M25.21,21.427c-0.381,0.12-0.677,0.172-1,0.172c-0.711,0-1.101-0.409-1.101-1.161
					c-0.01-0.235,0.103-0.849,0.191-1.41c0.081-0.495,0.604-3.609,0.604-3.609h1.384l-0.162,0.801h0.709l-0.189,1.27h-0.712
					c-0.16,1.006-0.39,2.259-0.392,2.425c0,0.273,0.146,0.391,0.477,0.391c0.158,0,0.281-0.016,0.375-0.05L25.21,21.427z"/>
				<path fill="#FFFFFF" d="M29.452,21.385c-0.475,0.145-0.935,0.214-1.42,0.214c-1.548-0.001-2.355-0.811-2.355-2.358
					c0-1.808,1.027-3.139,2.42-3.139c1.141,0,1.87,0.745,1.87,1.915c0,0.387-0.051,0.766-0.17,1.3h-2.754
					c-0.094,0.767,0.397,1.087,1.201,1.087c0.496,0,0.942-0.103,1.439-0.333L29.452,21.385z M28.674,18.25
					c0.007-0.11,0.146-0.944-0.645-0.944c-0.44,0-0.755,0.336-0.884,0.944H28.674z"/>
				<path fill="#FFFFFF" d="M19.86,17.891c0,0.669,0.325,1.129,1.06,1.478c0.563,0.264,0.65,0.344,0.65,0.583
					c0,0.33-0.249,0.479-0.799,0.479c-0.415,0-0.802-0.065-1.247-0.209c0,0-0.183,1.167-0.191,1.22
					c0.316,0.069,0.598,0.133,1.448,0.157c1.469,0,2.147-0.559,2.147-1.767c0-0.727-0.284-1.152-0.981-1.473
					c-0.583-0.269-0.65-0.328-0.65-0.575c0-0.286,0.231-0.434,0.681-0.434c0.272,0,0.646,0.03,1,0.08l0.197-1.226
					c-0.359-0.057-0.906-0.104-1.225-0.104C20.395,16.101,19.856,16.914,19.86,17.891z"/>
				<path fill="#FFFFFF" d="M48.313,21.508h-1.316l0.064-0.492c-0.381,0.408-0.772,0.583-1.283,0.583
					c-1.012,0-1.681-0.871-1.681-2.194c0-1.759,1.038-3.241,2.265-3.241c0.54,0,0.948,0.22,1.328,0.721l0.309-1.879h1.372
					L48.313,21.508z M46.26,20.286c0.648,0,1.104-0.734,1.104-1.782c0-0.671-0.258-1.037-0.738-1.037
					c-0.631,0-1.079,0.737-1.079,1.777C45.547,19.935,45.787,20.286,46.26,20.286z"/>
				<path fill="#FFFFFF" d="M42.201,16.22c-0.173,1.637-0.483,3.294-0.726,4.931l-0.063,0.356h1.392
					c0.499-3.234,0.618-3.864,1.399-3.786c0.124-0.662,0.355-1.241,0.528-1.534c-0.583-0.122-0.908,0.208-1.334,0.833
					c0.033-0.27,0.095-0.533,0.083-0.802L42.201,16.22L42.201,16.22z"/>
				<path fill="#FFFFFF" d="M30.747,16.22c-0.175,1.637-0.485,3.294-0.727,4.931l-0.063,0.356h1.394
					c0.498-3.234,0.617-3.864,1.396-3.786c0.125-0.662,0.357-1.241,0.529-1.534c-0.583-0.122-0.908,0.208-1.335,0.833
					c0.034-0.27,0.096-0.533,0.083-0.802L30.747,16.22L30.747,16.22z"/>
				<g>
					<path fill="#FFFFFF" d="M48.924,21.094c0-0.23,0.187-0.415,0.414-0.415c0.229,0,0.414,0.186,0.414,0.415
						c0,0.228-0.186,0.413-0.414,0.413C49.11,21.508,48.924,21.321,48.924,21.094z M49.337,21.408c0.174,0,0.315-0.142,0.315-0.314
						c0-0.174-0.141-0.316-0.315-0.316c-0.173,0-0.314,0.142-0.314,0.316C49.023,21.267,49.164,21.408,49.337,21.408z
						 M49.282,21.274h-0.085V20.91h0.155c0.032,0,0.063,0.001,0.092,0.019c0.03,0.02,0.047,0.055,0.047,0.092
						c0,0.04-0.023,0.078-0.063,0.094l0.067,0.159H49.4l-0.056-0.144h-0.062v0.145H49.282L49.282,21.274z M49.282,21.069h0.047
						c0.018,0,0.037,0.001,0.053-0.008c0.013-0.008,0.021-0.026,0.021-0.042c0-0.013-0.009-0.03-0.021-0.037
						c-0.014-0.009-0.038-0.007-0.054-0.007h-0.046V21.069z"/>
				</g>
			</g>
		</g>
	</g>
</g>
</svg>
