<?xml version="1.0" encoding="utf-8"?>
<!-- Generator: Adobe Illustrator 16.0.0, SVG Export Plug-In . SVG Version: 6.00 Build 0)  -->
<!DOCTYPE svg PUBLIC "-//W3C//DTD SVG 1.1//EN" "http://www.w3.org/Graphics/SVG/1.1/DTD/svg11.dtd">
<svg version="1.1" id="Layer_1" xmlns="http://www.w3.org/2000/svg" xmlns:xlink="http://www.w3.org/1999/xlink" x="0px" y="0px"
	 width="56.693px" height="35.229px" viewBox="1 1 56.693 35.229" enable-background="new 1 1 56.693 35.229" xml:space="preserve">
<g>
	<g>
		<path fill="#E5E6E7" d="M54.357,1.553c1.534,0,2.782,1.248,2.782,2.782v28.558c0,1.535-1.249,2.783-2.782,2.783H4.336
			c-1.534,0-2.782-1.248-2.782-2.783V4.336c0-1.534,1.248-2.782,2.782-2.782H54.357 M54.357,1H4.336C2.493,1,1,2.493,1,4.336v28.558
			c0,1.843,1.493,3.336,3.336,3.336h50.021c1.843,0,3.336-1.493,3.336-3.336V4.336C57.693,2.493,56.2,1,54.357,1L54.357,1z"/>
	</g>
	<g>
		<polygon fill="#005098" points="22.041,25.683 24.438,11.61 28.275,11.61 25.874,25.683 		"/>
		<path fill="#005098" d="M39.787,11.957c-0.759-0.286-1.95-0.591-3.438-0.591c-3.79,0-6.459,1.908-6.483,4.644
			c-0.021,2.021,1.906,3.15,3.361,3.823c1.494,0.69,1.996,1.13,1.99,1.746c-0.011,0.943-1.194,1.373-2.297,1.373
			c-1.534,0-2.35-0.212-3.609-0.738l-0.494-0.223l-0.539,3.15c0.895,0.393,2.552,0.733,4.273,0.75c4.033,0,6.648-1.886,6.679-4.808
			c0.015-1.6-1.006-2.817-3.219-3.822c-1.341-0.652-2.163-1.085-2.155-1.745c0-0.585,0.696-1.21,2.198-1.21
			c1.254-0.02,2.164,0.253,2.87,0.539l0.346,0.163L39.787,11.957L39.787,11.957z"/>
		<path fill="#005098" d="M49.623,11.624h-2.964c-0.918,0-1.605,0.25-2.009,1.167l-5.696,12.896h4.028c0,0,0.656-1.733,0.807-2.115
			c0.44,0,4.352,0.006,4.912,0.006c0.114,0.493,0.466,2.108,0.466,2.108h3.56L49.623,11.624L49.623,11.624z M44.893,20.696
			c0.317-0.812,1.528-3.935,1.528-3.935c-0.021,0.038,0.315-0.815,0.508-1.343l0.26,1.213c0,0,0.734,3.36,0.888,4.065H44.893
			L44.893,20.696z"/>
		<path fill="#005098" d="M18.824,11.621l-3.756,9.597l-0.401-1.95c-0.697-2.25-2.876-4.686-5.312-5.904l3.434,12.308l4.058-0.006
			l6.039-14.045H18.824L18.824,11.621z"/>
		<path fill="#F6A500" d="M11.585,11.612H5.398l-0.047,0.292c4.811,1.166,7.996,3.98,9.316,7.364l-1.344-6.468
			C13.092,11.909,12.418,11.643,11.585,11.612L11.585,11.612z"/>
	</g>
</g>
</svg>
