<?xml version="1.0" encoding="utf-8"?>
<!-- Generator: Adobe Illustrator 16.0.0, SVG Export Plug-In . SVG Version: 6.00 Build 0)  -->
<!DOCTYPE svg PUBLIC "-//W3C//DTD SVG 1.1//EN" "http://www.w3.org/Graphics/SVG/1.1/DTD/svg11.dtd">
<svg version="1.1" id="Layer_1" xmlns="http://www.w3.org/2000/svg" xmlns:xlink="http://www.w3.org/1999/xlink" x="0px" y="0px"
	 width="35.264px" height="35.229px" viewBox="0 0 35.264 35.229" enable-background="new 0 0 35.264 35.229" xml:space="preserve">
<g>
	<g>
		<g>
			<path fill="#050013" stroke="#231F20" stroke-width="0.0549" stroke-miterlimit="22.9256" d="M17.742,0.798
				c9.334,0,16.901,7.567,16.901,16.9c0,9.334-7.567,16.9-16.901,16.9c-9.333,0-16.899-7.564-16.899-16.9
				C0.843,8.364,8.408,0.798,17.742,0.798L17.742,0.798z"/>
			<path fill="#FFFFFF" d="M10.482,13.17c2.448,0,4.5,1.694,5.048,3.973l-2.092,0.915v-0.005l-2.141,0.942L6.16,21.241
				c-0.55-0.824-0.87-1.814-0.87-2.878C5.288,15.495,7.613,13.17,10.482,13.17L10.482,13.17z M12.712,16.399l-5.189,2.235
				c-0.009-0.09-0.013-0.179-0.013-0.27c0-1.642,1.331-2.972,2.972-2.972C11.37,15.392,12.165,15.781,12.712,16.399L12.712,16.399z"
				/>
			<path fill="#FFFFFF" d="M14.111,22.079c-1.86,1.766-4.319,1.938-6.482,0.625l1.221-1.857c1.23,0.736,2.466,0.617,3.707-0.359
				L14.111,22.079L14.111,22.079z"/>
			<path fill="#FFFFFF" d="M16.225,20.794l-0.015-9.823h1.862v9.558c0,0.092,0.011,0.172,0.132,0.219l1.619,0.629l-0.73,1.898
				l-1.897-0.803C16.479,22.165,16.227,21.726,16.225,20.794L16.225,20.794z"/>
		</g>
		<g>
			<path fill="#009DD7" d="M23.232,20.628c-0.696-0.543-1.146-1.389-1.146-2.342c0-0.847,0.355-1.609,0.924-2.149l-1.202-1.946
				c-1.208,0.956-1.984,2.436-1.984,4.096c0,1.789,0.9,3.371,2.273,4.313L23.232,20.628z"/>
			<path fill="#FFF200" d="M24.046,15.497c0.313-0.111,0.651-0.175,1.003-0.175c1.27,0,2.351,0.799,2.774,1.918l2.304-0.191
				c-0.557-2.288-2.619-3.989-5.078-3.989c-0.695,0-1.357,0.137-1.964,0.384L24.046,15.497z"/>
			<path fill="#E33206" d="M28.01,18.431c-0.075,1.57-1.372,2.82-2.96,2.82c-0.249,0-0.491-0.031-0.722-0.09l-0.903,2.092
				c0.512,0.168,1.058,0.26,1.625,0.26c2.814,0,5.107-2.225,5.221-5.011L28.01,18.431z"/>
		</g>
	</g>
	<path fill="#050013" stroke="#231F20" stroke-width="0.0549" stroke-miterlimit="22.9256" d="M12.71,16.36l-5.189,2.237
		c-0.009-0.09-0.013-0.18-0.013-0.272c0-1.641,1.331-2.972,2.972-2.972C11.368,15.354,12.164,15.743,12.71,16.36L12.71,16.36z"/>
</g>
</svg>
