<?xml version="1.0" encoding="utf-8"?>
<!-- Generator: Adobe Illustrator 16.0.0, SVG Export Plug-In . SVG Version: 6.00 Build 0)  -->
<!DOCTYPE svg PUBLIC "-//W3C//DTD SVG 1.1//EN" "http://www.w3.org/Graphics/SVG/1.1/DTD/svg11.dtd">
<svg version="1.1" id="Layer_1" xmlns="http://www.w3.org/2000/svg" xmlns:xlink="http://www.w3.org/1999/xlink" x="0px" y="0px"
	 width="56.693px" height="35.229px" viewBox="0.864 0 56.693 35.229" enable-background="new 0.864 0 56.693 35.229"
	 xml:space="preserve">
<g>
	<g>
		<g>
			<path fill="#050013" stroke="#231F20" stroke-width="0.0476" stroke-miterlimit="22.9256" d="M29.21,2.976
				c8.092,0,14.651,6.559,14.651,14.65S37.302,32.277,29.21,32.277c-8.091,0-14.65-6.559-14.65-14.651S21.119,2.976,29.21,2.976
				L29.21,2.976z"/>
			<path fill="#FFFFFF" d="M22.917,13.7c2.122,0,3.901,1.469,4.376,3.445l-1.814,0.793l0-0.004l-1.856,0.816l-4.453,1.947
				c-0.477-0.715-0.754-1.573-0.754-2.495C18.414,15.716,20.429,13.7,22.917,13.7L22.917,13.7z M24.849,16.499l-4.498,1.938
				c-0.007-0.077-0.011-0.155-0.011-0.234c0-1.423,1.153-2.576,2.576-2.576C23.686,15.627,24.376,15.964,24.849,16.499
				L24.849,16.499z"/>
			<path fill="#FFFFFF" d="M26.062,21.423c-1.612,1.53-3.744,1.68-5.619,0.542l1.059-1.609c1.066,0.637,2.137,0.534,3.213-0.312
				L26.062,21.423L26.062,21.423z"/>
			<path fill="#FFFFFF" d="M27.895,20.309l-0.012-8.515h1.614v8.285c0,0.079,0.01,0.149,0.114,0.19l1.403,0.545l-0.632,1.645
				l-1.645-0.695C28.115,21.498,27.896,21.116,27.895,20.309L27.895,20.309z"/>
		</g>
		<g>
			<path fill="#009DD7" d="M33.969,20.165c-0.604-0.47-0.994-1.204-0.994-2.029c0-0.734,0.308-1.396,0.801-1.863l-1.042-1.688
				c-1.047,0.829-1.72,2.111-1.72,3.551c0,1.551,0.781,2.921,1.971,3.738L33.969,20.165z"/>
			<path fill="#FFF200" d="M34.675,15.718c0.271-0.097,0.564-0.151,0.87-0.151c1.1,0,2.038,0.692,2.404,1.663l1.997-0.166
				c-0.482-1.984-2.269-3.458-4.401-3.458c-0.603,0-1.177,0.119-1.703,0.333L34.675,15.718z"/>
			<path fill="#E33206" d="M38.111,18.261c-0.065,1.361-1.189,2.445-2.566,2.445c-0.216,0-0.426-0.027-0.626-0.078l-0.783,1.813
				c0.443,0.145,0.917,0.225,1.409,0.225c2.439,0,4.427-1.929,4.525-4.344L38.111,18.261z"/>
		</g>
	</g>
	<path fill="#050013" stroke="#231F20" stroke-width="0.0476" stroke-miterlimit="22.9256" d="M24.847,16.466l-4.498,1.938
		c-0.007-0.077-0.01-0.155-0.01-0.235c0-1.423,1.153-2.576,2.576-2.576C23.684,15.594,24.375,15.931,24.847,16.466L24.847,16.466z"
		/>
</g>
</svg>
