<?xml version="1.0" encoding="utf-8"?>
<!-- Generator: Adobe Illustrator 16.0.0, SVG Export Plug-In . SVG Version: 6.00 Build 0)  -->
<!DOCTYPE svg PUBLIC "-//W3C//DTD SVG 1.1//EN" "http://www.w3.org/Graphics/SVG/1.1/DTD/svg11.dtd">
<svg version="1.1" id="Layer_1" xmlns="http://www.w3.org/2000/svg" xmlns:xlink="http://www.w3.org/1999/xlink" x="0px" y="0px"
	 width="56.693px" height="35.229px" viewBox="0.864 0 56.693 35.229" enable-background="new 0.864 0 56.693 35.229"
	 xml:space="preserve">
<g>
	<g>
		<path fill="#E5E6E7" d="M54.222,0.553c1.534,0,2.782,1.248,2.782,2.782v28.558c0,1.534-1.248,2.782-2.782,2.782H4.2
			c-1.534,0-2.782-1.248-2.782-2.782V3.336c0-1.534,1.248-2.782,2.782-2.782H54.222 M54.222,0H4.2C2.358,0,0.864,1.493,0.864,3.336
			v28.558c0,1.843,1.494,3.336,3.336,3.336h50.021c1.843,0,3.336-1.493,3.336-3.336V3.336C57.558,1.493,56.064,0,54.222,0L54.222,0z
			"/>
	</g>
</g>
<g>
	<g>
		<polygon fill="#231F20" points="11.583,8.842 13.605,8.842 13.605,27.768 11.583,27.768 		"/>
		<polygon fill="#231F20" points="14.242,8.842 14.869,8.842 14.869,27.768 14.242,27.768 		"/>
		<polygon fill="#231F20" points="15.414,8.842 16.535,8.842 16.535,27.768 15.414,27.768 		"/>
		<polygon fill="#231F20" points="17.616,8.842 18.243,8.842 18.243,27.768 17.616,27.768 		"/>
		<polygon fill="#231F20" points="18.515,8.842 18.998,8.842 18.998,27.768 18.515,27.768 		"/>
		<polygon fill="#231F20" points="10.046,8.842 10.673,8.842 10.673,27.768 10.046,27.768 		"/>
		<polygon fill="#231F20" points="8.665,8.842 9.786,8.842 9.786,27.768 8.665,27.768 		"/>
		<polygon fill="#231F20" points="22.345,8.842 24.366,8.842 24.366,27.768 22.345,27.768 		"/>
		<polygon fill="#231F20" points="25.003,8.842 25.629,8.842 25.629,27.768 25.003,27.768 		"/>
		<polygon fill="#231F20" points="26.175,8.842 27.297,8.842 27.297,27.768 26.175,27.768 		"/>
		<polygon fill="#231F20" points="28.377,8.842 29.004,8.842 29.004,27.768 28.377,27.768 		"/>
		<polygon fill="#231F20" points="29.276,8.842 29.76,8.842 29.76,27.768 29.276,27.768 		"/>
		<polygon fill="#231F20" points="20.808,8.842 21.434,8.842 21.434,27.768 20.808,27.768 		"/>
		<polygon fill="#231F20" points="19.427,8.842 20.547,8.842 20.547,27.768 19.427,27.768 		"/>
		<polygon fill="#231F20" points="30.553,8.842 31.674,8.842 31.674,27.768 30.553,27.768 		"/>
		<polygon fill="#231F20" points="32.756,8.842 33.38,8.842 33.38,27.768 32.756,27.768 		"/>
		<polygon fill="#231F20" points="33.654,8.842 34.138,8.842 34.138,27.768 33.654,27.768 		"/>
		<polygon fill="#231F20" points="35.948,8.842 36.574,8.842 36.574,27.768 35.948,27.768 		"/>
		<polygon fill="#231F20" points="34.566,8.842 35.688,8.842 35.688,27.768 34.566,27.768 		"/>
		<polygon fill="#231F20" points="37.407,8.842 38.033,8.842 38.033,27.768 37.407,27.768 		"/>
		<polygon fill="#231F20" points="38.305,8.842 38.788,8.842 38.788,27.768 38.305,27.768 		"/>
		<polygon fill="#231F20" points="40.599,8.842 41.225,8.842 41.225,27.768 40.599,27.768 		"/>
		<polygon fill="#231F20" points="39.217,8.842 40.339,8.842 40.339,27.768 39.217,27.768 		"/>
		<polygon fill="#231F20" points="41.772,8.842 43.792,8.842 43.792,27.768 41.772,27.768 		"/>
		<polygon fill="#231F20" points="44.428,8.842 45.055,8.842 45.055,27.768 44.428,27.768 		"/>
		<polygon fill="#231F20" points="45.601,8.842 46.723,8.842 46.723,27.768 45.601,27.768 		"/>
		<polygon fill="#231F20" points="47.803,8.842 48.43,8.842 48.43,27.768 47.803,27.768 		"/>
		<polygon fill="#231F20" points="48.702,8.842 49.185,8.842 49.185,27.768 48.702,27.768 		"/>
		<polygon fill="#231F20" points="49.979,8.842 51.1,8.842 51.1,27.768 49.979,27.768 		"/>
		<polygon fill="#FFFFFF" points="10.951,28.797 49.694,28.797 49.694,17.203 10.951,17.203 		"/>
		<path fill="#231F20" d="M11.682,27.404v-9.597h3.601c0.733,0,1.32,0.095,1.765,0.29c0.442,0.195,0.788,0.494,1.039,0.898
			c0.253,0.401,0.377,0.825,0.377,1.267c0,0.41-0.111,0.795-0.333,1.158c-0.221,0.361-0.555,0.655-1.005,0.878
			c0.581,0.17,1.028,0.46,1.338,0.87c0.313,0.409,0.47,0.894,0.47,1.452c0,0.452-0.096,0.87-0.286,1.256
			c-0.19,0.387-0.424,0.684-0.704,0.894c-0.28,0.207-0.63,0.368-1.05,0.474c-0.422,0.107-0.938,0.162-1.55,0.162H11.682
			L11.682,27.404z M12.956,21.841h2.075c0.562,0,0.968-0.038,1.211-0.111c0.324-0.097,0.567-0.257,0.73-0.481
			c0.163-0.224,0.246-0.502,0.246-0.839c0-0.319-0.076-0.602-0.231-0.842c-0.151-0.242-0.37-0.41-0.654-0.5
			c-0.284-0.089-0.771-0.133-1.459-0.133h-1.919v2.907H12.956L12.956,21.841z M12.956,26.277h2.39c0.412,0,0.699-0.015,0.867-0.047
			c0.291-0.051,0.537-0.138,0.734-0.261c0.197-0.123,0.357-0.301,0.484-0.537c0.128-0.234,0.191-0.505,0.191-0.81
			c0-0.361-0.091-0.67-0.278-0.937c-0.183-0.265-0.438-0.452-0.764-0.558c-0.323-0.107-0.793-0.162-1.403-0.162h-2.221V26.277
			L12.956,26.277z"/>
		<path fill="#231F20" d="M20.086,23.926c0-1.284,0.356-2.236,1.075-2.854c0.596-0.514,1.327-0.771,2.187-0.771
			c0.954,0,1.735,0.313,2.343,0.939c0.606,0.623,0.91,1.487,0.91,2.588c0,0.894-0.134,1.596-0.402,2.106
			c-0.268,0.512-0.659,0.91-1.173,1.194c-0.512,0.283-1.072,0.424-1.678,0.424c-0.974,0-1.761-0.31-2.361-0.933
			C20.384,25.994,20.086,25.095,20.086,23.926L20.086,23.926z M21.292,23.927c0,0.889,0.194,1.555,0.583,1.995
			c0.391,0.442,0.88,0.663,1.473,0.663c0.585,0,1.072-0.221,1.463-0.667c0.388-0.443,0.582-1.122,0.582-2.03
			c0-0.858-0.196-1.507-0.587-1.948c-0.391-0.442-0.878-0.664-1.459-0.664c-0.592,0-1.081,0.219-1.472,0.659
			C21.486,22.378,21.292,23.041,21.292,23.927L21.292,23.927z"/>
		<polygon fill="#231F20" points="27.956,27.404 27.956,17.807 29.135,17.807 29.135,27.404 		"/>
		<path fill="#231F20" d="M35.705,25.152l1.22,0.161c-0.191,0.708-0.546,1.26-1.063,1.652c-0.518,0.391-1.18,0.587-1.987,0.587
			c-1.014,0-1.817-0.312-2.412-0.939c-0.594-0.623-0.891-1.501-0.891-2.628c0-1.165,0.298-2.074,0.9-2.716
			c0.602-0.646,1.38-0.968,2.338-0.968c0.928,0,1.686,0.316,2.272,0.948c0.587,0.632,0.883,1.521,0.883,2.667
			c0,0.071-0.002,0.174-0.008,0.313h-5.179c0.045,0.763,0.26,1.347,0.648,1.752c0.387,0.403,0.872,0.607,1.451,0.607
			c0.431,0,0.8-0.115,1.104-0.342C35.285,26.016,35.525,25.652,35.705,25.152L35.705,25.152z M31.845,23.261h3.873
			c-0.05-0.584-0.2-1.022-0.444-1.315c-0.373-0.453-0.86-0.681-1.458-0.681c-0.54,0-0.993,0.181-1.362,0.542
			C32.088,22.169,31.885,22.654,31.845,23.261L31.845,23.261z"/>
		<path fill="#231F20" d="M40.975,26.352l0.162,1.04c-0.332,0.07-0.627,0.104-0.886,0.104c-0.427,0-0.757-0.066-0.994-0.203
			c-0.234-0.135-0.4-0.312-0.497-0.533c-0.095-0.221-0.143-0.686-0.143-1.395v-4.008h-0.871v-0.911h0.871v-1.721l1.18-0.708v2.428
			h1.18v0.911h-1.18v4.074c0,0.338,0.02,0.555,0.063,0.65c0.041,0.096,0.107,0.172,0.202,0.23c0.092,0.057,0.227,0.085,0.402,0.085
			C40.591,26.398,40.763,26.382,40.975,26.352L40.975,26.352z"/>
		<path fill="#231F20" d="M41.696,23.926c0-1.284,0.358-2.236,1.076-2.854c0.597-0.514,1.326-0.771,2.187-0.771
			c0.954,0,1.735,0.313,2.343,0.939c0.606,0.623,0.909,1.487,0.909,2.588c0,0.894-0.133,1.596-0.401,2.106
			c-0.268,0.512-0.659,0.91-1.173,1.194c-0.513,0.283-1.073,0.424-1.677,0.424c-0.975,0-1.76-0.31-2.362-0.933
			C41.996,25.994,41.696,25.095,41.696,23.926L41.696,23.926z M42.902,23.927c0,0.889,0.194,1.555,0.584,1.995
			c0.391,0.442,0.878,0.663,1.472,0.663c0.584,0,1.072-0.221,1.462-0.667c0.389-0.443,0.583-1.122,0.583-2.03
			c0-0.858-0.198-1.507-0.588-1.948c-0.392-0.442-0.878-0.664-1.459-0.664c-0.593,0-1.081,0.219-1.473,0.659
			C43.098,22.378,42.902,23.041,42.902,23.927L42.902,23.927z"/>
	</g>
</g>
</svg>
